<svg xmlns="http://www.w3.org/2000/svg" viewBox="0 0 486.91 243.33"><defs><style>.cls-1{fill:#ff605a;}.cls-2{fill:#a8e379;}.cls-3{fill:#ffd864;}.cls-4{fill:#1ed5da;}.cls-5{fill:#3694a7;}</style></defs><title>bg-gift</title><g id="Layer_2" data-name="Layer 2"><g id="objects"><g id="bg-gift"><polygon class="cls-1" points="8.08 138.75 5.42 136.33 0 134.76 2.66 137.19 8.08 138.75"/><polygon class="cls-2" points="14.16 132.51 15.51 137 16.66 137.34 16.65 133.92 14.16 132.51"/><polygon class="cls-3" points="33.72 164.03 33.2 158.24 31.03 162.26 31.56 168.05 33.72 164.03"/><polygon class="cls-4" points="23.85 119.19 31.65 121.97 33.7 115.14 25.89 112.36 23.85 119.19"/><polygon class="cls-2" points="108.41 13.75 109.52 13.43 108.68 12.97 108.41 13.75"/><polygon class="cls-5" points="93.89 32.99 97.5 38.03 96.54 32.64 92.92 27.6 93.89 32.99"/><polygon class="cls-3" points="155.61 29.05 154.58 33.5 156.6 38.95 157.63 34.51 155.61 29.05"/><polygon class="cls-1" points="24.77 4.23 27.97 6.23 33.61 6.23 30.41 4.23 24.77 4.23"/><polygon class="cls-1" points="98.22 147.23 101.42 149.23 107.06 149.23 103.86 147.23 98.22 147.23"/><polygon class="cls-4" points="148.09 83.11 146.24 77.56 142.07 72.98 143.93 78.53 148.09 83.11"/><polygon class="cls-4" points="69.35 102.27 62.58 107.04 66.98 112.65 73.74 107.88 69.35 102.27"/><polygon class="cls-4" points="80.17 43.85 73.4 48.62 77.8 54.23 84.56 49.46 80.17 43.85"/><polygon class="cls-2" points="121.54 57.8 115.53 60.79 118.65 67.93 124.66 64.94 121.54 57.8"/><polygon class="cls-2" points="49.53 10.13 55.54 7.14 52.42 0 46.42 2.98 49.53 10.13"/><polygon class="cls-1" points="123.42 33.7 117.42 36.68 120.53 43.83 126.54 40.84 123.42 33.7"/><polygon class="cls-1" points="38.2 50.1 32.19 53.09 35.31 60.23 41.31 57.24 38.2 50.1"/><polygon class="cls-5" points="110.85 5.29 106.77 11.92 108.68 12.97 109.81 9.77 113.74 8.65 112.34 12.63 109.52 13.43 112.65 15.15 116.73 8.51 110.85 5.29"/><polygon class="cls-5" points="113.74 8.65 109.81 9.77 108.68 12.97 109.52 13.43 112.34 12.63 113.74 8.65"/><polygon class="cls-5" points="81.75 116.69 77.66 123.33 83.54 126.55 87.63 119.92 81.75 116.69"/><polygon class="cls-5" points="172.61 56.9 168.53 63.54 174.41 66.76 178.5 60.13 172.61 56.9"/><polygon class="cls-3" points="136.9 20.87 141.15 21.96 137.35 15.87 135.51 15.83 136.9 20.87"/><polygon class="cls-2" points="37.63 81.71 31.73 83.38 29.62 89.35 35.52 87.67 37.63 81.71"/><polygon class="cls-5" points="21.84 53.73 17.83 54.87 16.4 58.92 20.41 57.79 21.84 53.73"/><polygon class="cls-2" points="33.77 41.3 31.29 37.31 30.08 37.29 30.99 40.59 33.77 41.3"/><polygon class="cls-2" points="57.63 18.77 53.71 19.76 58.62 22.12 62.54 21.14 57.63 18.77"/><polygon class="cls-3" points="127.17 126.62 123.66 120.52 121.67 124.55 125.18 130.65 127.17 126.62"/><polygon class="cls-3" points="105.06 133.08 101.54 126.98 99.56 131.01 103.07 137.11 105.06 133.08"/><polygon class="cls-2" points="89.85 151.41 90.76 154.7 93.54 155.41 91.06 151.43 89.85 151.41"/><polygon class="cls-2" points="52.49 73.89 48.56 75 47.16 78.98 51.09 77.86 52.49 73.89"/><polygon class="cls-1" points="12.83 42.23 14.26 38.17 10.25 39.3 8.82 43.36 12.83 42.23"/><polygon class="cls-3" points="66.85 130 68.87 135.45 69.91 131.01 67.88 125.56 66.85 130"/><polygon class="cls-2" points="102.08 58.37 106.01 57.25 107.42 53.27 103.48 54.39 102.08 58.37"/><polygon class="cls-1" points="67.14 46.85 65.71 50.91 69.72 49.77 71.15 45.72 67.14 46.85"/><polygon class="cls-1" points="50.76 104.09 54.76 102.96 56.2 98.9 52.19 100.04 50.76 104.09"/><polygon class="cls-1" points="274.78 152.16 276.52 155.95 276.85 156.01 279.47 153.96 279.01 152.95 274.78 152.16"/><polygon class="cls-4" points="254.58 154.08 251.27 159.29 250.98 164.16 254.29 158.94 254.58 154.08"/><polygon class="cls-4" points="204.2 201.56 199.34 206.77 205.1 212.71 209.96 207.5 204.2 201.56"/><polygon class="cls-2" points="227.53 167.82 223.65 162.35 217.07 166.53 220.96 172.01 227.53 167.82"/><polygon class="cls-3" points="264.01 162.27 263.84 161.06 260.67 162.49 260.39 165.4 264.01 162.27"/><polygon class="cls-2" points="208.21 172.15 206.64 177.37 208.21 181.09 209.79 175.87 208.21 172.15"/><polygon class="cls-4" points="228.24 205.85 232.65 200.64 231.22 195.77 226.81 200.98 228.24 205.85"/><polygon class="cls-2" points="152.84 175.61 148.69 174.84 150.4 178.55 154.54 179.32 152.84 175.61"/><polygon class="cls-1" points="124.43 182.28 126.17 186.07 130.4 186.86 128.66 183.07 124.43 182.28"/><polygon class="cls-1" points="478.83 156.73 481.49 154.3 486.91 152.73 484.25 155.16 478.83 156.73"/><polygon class="cls-2" points="472.17 150.48 470.82 154.97 469.67 155.31 469.68 151.89 472.17 150.48"/><polygon class="cls-1" points="307.42 200.42 310.08 198 315.5 196.43 312.85 198.85 307.42 200.42"/><polygon class="cls-2" points="301.17 194.17 299.82 198.67 298.67 199.01 298.68 195.59 301.17 194.17"/><polygon class="cls-3" points="453.19 182 453.72 176.21 455.88 180.23 455.36 186.02 453.19 182"/><polygon class="cls-4" points="463.06 137.16 455.26 139.94 453.21 133.11 461.02 130.34 463.06 137.16"/><polygon class="cls-3" points="357.05 122.33 354.52 126.39 353.29 126.41 354.21 123.05 357.05 122.33"/><polygon class="cls-2" points="378.5 31.72 377.39 31.4 378.23 30.94 378.5 31.72"/><polygon class="cls-5" points="393.02 50.96 389.41 56.01 390.38 50.61 393.99 45.57 393.02 50.96"/><polygon class="cls-3" points="331.3 47.03 332.33 51.47 330.31 56.92 329.28 52.48 331.3 47.03"/><polygon class="cls-1" points="462.15 22.23 458.94 24.23 453.3 24.23 456.5 22.23 462.15 22.23"/><polygon class="cls-1" points="388.7 165.23 385.49 167.23 379.85 167.23 383.05 165.23 388.7 165.23"/><polygon class="cls-4" points="338.82 101.08 340.68 95.53 344.84 90.96 342.99 96.51 338.82 101.08"/><polygon class="cls-4" points="417.56 120.24 424.33 125.01 419.93 130.62 413.17 125.85 417.56 120.24"/><polygon class="cls-4" points="315.68 175.26 322.44 180.04 318.05 185.65 311.28 180.88 315.68 175.26"/><polygon class="cls-4" points="406.74 61.82 413.51 66.59 409.11 72.21 402.35 67.43 406.74 61.82"/><polygon class="cls-2" points="396.78 99.09 402.79 102.08 399.67 109.22 393.67 106.23 396.78 99.09"/><polygon class="cls-2" points="365.37 75.77 371.38 78.76 368.26 85.9 362.26 82.91 365.37 75.77"/><polygon class="cls-2" points="437.38 28.1 431.37 25.11 434.49 17.97 440.5 20.96 437.38 28.1"/><polygon class="cls-1" points="363.49 51.67 369.5 54.66 366.38 61.8 360.37 58.81 363.49 51.67"/><polygon class="cls-1" points="448.71 68.07 454.72 71.06 451.6 78.2 445.6 75.21 448.71 68.07"/><polygon class="cls-5" points="334.94 121.17 340.44 120.68 337.33 127.82 331.32 124.83 334.94 121.17"/><polygon class="cls-5" points="376.06 23.26 380.14 29.89 378.23 30.94 377.1 27.74 373.17 26.62 374.57 30.6 377.39 31.4 374.26 33.12 370.18 26.48 376.06 23.26"/><polygon class="cls-5" points="373.17 26.62 377.1 27.74 378.23 30.94 377.39 31.4 374.57 30.6 373.17 26.62"/><polygon class="cls-5" points="405.17 134.66 409.25 141.3 403.37 144.53 399.29 137.89 405.17 134.66"/><polygon class="cls-5" points="341.34 147.96 345.43 154.6 339.54 157.82 335.46 151.19 341.34 147.96"/><polygon class="cls-5" points="314.3 74.87 318.38 81.51 312.5 84.73 308.42 78.1 314.3 74.87"/><polygon class="cls-3" points="317.61 98.08 319.16 104.75 316.12 112.93 314.57 106.26 317.61 98.08"/><polygon class="cls-3" points="350.01 38.84 345.76 39.93 349.56 33.84 351.4 33.8 350.01 38.84"/><polygon class="cls-2" points="449.28 99.68 455.19 101.35 457.29 107.32 451.39 105.64 449.28 99.68"/><polygon class="cls-5" points="465.07 71.7 469.08 72.84 470.51 76.9 466.5 75.76 465.07 71.7"/><polygon class="cls-2" points="453.14 59.27 455.62 55.28 456.83 55.26 455.92 58.56 453.14 59.27"/><polygon class="cls-2" points="283.98 175.85 286.46 171.87 287.67 171.84 286.76 175.14 283.98 175.85"/><polygon class="cls-2" points="429.28 36.74 433.2 37.73 428.29 40.09 424.37 39.11 429.28 36.74"/><polygon class="cls-1" points="366.59 118.21 368.31 112.67 372.41 108.02 370.69 113.55 366.59 118.21"/><polygon class="cls-4" points="402.37 119.56 397.9 124.73 392.87 124.07 397.34 118.9 402.37 119.56"/><polygon class="cls-3" points="359.74 144.59 363.26 138.49 365.24 142.52 361.73 148.62 359.74 144.59"/><polygon class="cls-3" points="381.86 151.05 385.37 144.95 387.35 148.98 383.84 155.08 381.86 151.05"/><polygon class="cls-2" points="397.06 169.38 396.15 172.67 393.37 173.38 395.86 169.4 397.06 169.38"/><polygon class="cls-2" points="434.42 91.86 438.35 92.97 439.75 96.95 435.82 95.83 434.42 91.86"/><polygon class="cls-1" points="474.08 60.2 472.65 56.14 476.66 57.27 478.09 61.33 474.08 60.2"/><polygon class="cls-3" points="420.06 147.97 418.04 153.42 417 148.98 419.03 143.53 420.06 147.97"/><polygon class="cls-5" points="248.27 176.64 252.36 183.28 246.47 186.5 242.39 179.87 248.27 176.64"/><polygon class="cls-3" points="263.17 189.95 261.14 195.4 260.11 190.96 262.14 185.5 263.17 189.95"/><polygon class="cls-2" points="384.83 76.34 380.9 75.22 379.5 71.25 383.43 72.36 384.83 76.34"/><polygon class="cls-1" points="419.77 64.82 421.21 68.88 417.19 67.74 415.76 63.69 419.77 64.82"/><polygon class="cls-4" points="295.84 155.86 302.61 160.64 298.21 166.25 291.44 161.47 295.84 155.86"/><polygon class="cls-1" points="308.87 158.87 310.3 162.92 306.29 161.79 304.86 157.73 308.87 158.87"/><polygon class="cls-1" points="436.16 122.07 432.15 120.93 430.71 116.88 434.72 118.01 436.16 122.07"/><polygon class="cls-4" points="363.56 212.4 368.43 217.61 362.66 223.55 357.8 218.34 363.56 212.4"/><polygon class="cls-2" points="344.96 178.25 351.18 177.09 348.62 182.66 342.4 183.82 344.96 178.25"/><polygon class="cls-2" points="278.7 190.13 280.27 195.34 278.7 199.06 277.12 193.84 278.7 190.13"/><polygon class="cls-4" points="357.76 243.33 353.35 238.12 354.78 233.25 359.19 238.46 357.76 243.33"/><polygon class="cls-2" points="334.07 193.59 338.22 192.81 336.51 196.52 332.37 197.3 334.07 193.59"/><polygon class="cls-4" points="301.98 130.01 298.66 124.8 298.38 119.93 301.69 125.14 301.98 130.01"/><polygon class="cls-4" points="254.58 217.75 251.26 212.54 250.98 207.67 254.29 212.88 254.58 217.75"/><polygon class="cls-1" points="362.48 200.25 360.74 204.04 356.51 204.83 358.25 201.04 362.48 200.25"/><path class="cls-2" d="M314.34,140.34v0a30,30,0,0,0-4.82.56l.3-.48C310.71,139.91,314.34,140.34,314.34,140.34Z"/><path class="cls-2" d="M293.3,103a6.8,6.8,0,0,1,1.54,1.51c-.08-.06-.55-.42-1.39-.94A2.25,2.25,0,0,0,293.3,103Z"/></g></g></g></svg>