<svg xmlns="http://www.w3.org/2000/svg" xmlns:xlink="http://www.w3.org/1999/xlink" viewBox="0 0 172.12 217.14"><defs><style>.cls-1{fill:none;}.cls-2{isolation:isolate;}.cls-3{fill:url(#linear-gradient);}.cls-4{fill:#fff;}.cls-5{clip-path:url(#clip-path);}.cls-10,.cls-11,.cls-12,.cls-13,.cls-14,.cls-15,.cls-16,.cls-17,.cls-18,.cls-19,.cls-20,.cls-21,.cls-22,.cls-23,.cls-24,.cls-25,.cls-26,.cls-27,.cls-28,.cls-29,.cls-30,.cls-31,.cls-32,.cls-33,.cls-34,.cls-36,.cls-37,.cls-38,.cls-39,.cls-40,.cls-41,.cls-42,.cls-43,.cls-44,.cls-45,.cls-46,.cls-47,.cls-48,.cls-49,.cls-50,.cls-51,.cls-52,.cls-53,.cls-6,.cls-7,.cls-8,.cls-9{mix-blend-mode:multiply;}.cls-6{fill:url(#linear-gradient-2);}.cls-7{fill:url(#radial-gradient);}.cls-8{fill:url(#linear-gradient-3);}.cls-9{fill:url(#linear-gradient-4);}.cls-10{fill:url(#radial-gradient-2);}.cls-11{fill:url(#linear-gradient-5);}.cls-12{fill:url(#radial-gradient-3);}.cls-13{fill:url(#linear-gradient-6);}.cls-14{fill:url(#radial-gradient-4);}.cls-15{fill:url(#linear-gradient-7);}.cls-16{fill:url(#radial-gradient-5);}.cls-17{fill:url(#linear-gradient-8);}.cls-18{fill:url(#linear-gradient-9);}.cls-19{fill:url(#radial-gradient-6);}.cls-20{fill:url(#radial-gradient-7);}.cls-21{fill:url(#radial-gradient-8);}.cls-22{fill:url(#linear-gradient-10);}.cls-23{fill:url(#linear-gradient-11);}.cls-24{fill:url(#linear-gradient-12);}.cls-25{fill:url(#linear-gradient-13);}.cls-26{fill:url(#linear-gradient-14);}.cls-27{fill:url(#linear-gradient-15);}.cls-28{fill:url(#linear-gradient-16);}.cls-29{fill:url(#linear-gradient-17);}.cls-30{fill:#808181;}.cls-31{fill:url(#linear-gradient-18);}.cls-32{fill:url(#linear-gradient-19);}.cls-33{fill:url(#linear-gradient-20);}.cls-34{fill:url(#linear-gradient-21);}.cls-35{fill:url(#linear-gradient-22);}.cls-36{fill:url(#linear-gradient-23);}.cls-37{fill:url(#linear-gradient-24);}.cls-38{fill:url(#linear-gradient-25);}.cls-39{fill:url(#linear-gradient-26);}.cls-40{fill:url(#linear-gradient-27);}.cls-41{fill:url(#radial-gradient-9);}.cls-42{fill:url(#linear-gradient-28);}.cls-43{fill:url(#linear-gradient-29);}.cls-44{fill:url(#linear-gradient-30);}.cls-45{fill:url(#linear-gradient-31);}.cls-46{fill:url(#radial-gradient-10);}.cls-47{fill:url(#linear-gradient-32);}.cls-48{fill:url(#linear-gradient-33);}.cls-49{fill:url(#linear-gradient-34);}.cls-50{fill:url(#linear-gradient-35);}.cls-51{fill:url(#linear-gradient-36);}.cls-52{fill:url(#radial-gradient-11);}.cls-53{fill:url(#linear-gradient-37);}.cls-54{fill:url(#linear-gradient-38);}.cls-55{fill:url(#linear-gradient-39);}.cls-56{fill:url(#linear-gradient-40);}.cls-57{fill:url(#linear-gradient-41);}.cls-58{fill:url(#linear-gradient-42);}.cls-59{fill:#f8b333;}</style><linearGradient id="linear-gradient" x1="86.06" y1="145.47" x2="86.06" y2="19.83" gradientUnits="userSpaceOnUse"><stop offset="0" stop-color="#008fc5"/><stop offset="0.48" stop-color="#24a4de"/><stop offset="1" stop-color="#18b9ed"/></linearGradient><clipPath id="clip-path"><path class="cls-1" d="M125.85,43a1.65,1.65,0,0,0,.56-1.29c0-4-14-14.16-22-14.16-6.68,0-3.71,11-10.72,11-3.36,0-5.41-1.82-5.41-5.87,0-5,3.42-8.47,7.57-8.47,3.25,0,4.86.89,4.86,1.89a2.74,2.74,0,0,0,1.35-2.22c0-1.67-2-3.22-6.05-3.22-1.12-2-4.15-3.34-7.17-3.34a13.71,13.71,0,0,0-6.73,2.16,5.69,5.69,0,0,1-2.29.49,5,5,0,0,1-2.18-.29,1.19,1.19,0,0,0,1-1.21,1.26,1.26,0,0,0-1.32-1.15,1.36,1.36,0,0,0-1.41,1.36c0,1.65,1.61,2.55,3.47,2.72q-.48.4-1,.84a4.12,4.12,0,0,1-.78.07c-2.19,0-4.53-.88-5-2.66a2.12,2.12,0,0,0,.4.05,1.12,1.12,0,0,0,1.12-1.25c0-.73-.57-1.14-1.38-1.14a1.55,1.55,0,0,0-1.54,1.72c0,2.11,1.93,4.68,5.4,5a29.11,29.11,0,0,0-5.82,10.49,5.15,5.15,0,0,1-1,.08c-1.91,0-2.46-1.39-2.46-3.63,0-2.89-.78-4.22-4-4.22-7.88,0-18.3,10.5-18.3,14.73a2,2,0,0,0,.81,1.5c-3,2.67-5.49,8-5.49,15.48,0,7.27,2,14.41,4.29,14.41a1.38,1.38,0,0,0,1-.43c1.46,7.23,10.2,17.23,10.2,26.35a1.94,1.94,0,0,1-2,2.22,4.4,4.4,0,0,1-3.14-1.78,4,4,0,0,0,4,3.45c2.58,0,3.7-2.11,3.7-4.67,0-7.92-4.14-15-6.65-20.13,3.9-.22,5-6.6,5-13.45a22.5,22.5,0,0,0,15-5.83,21.67,21.67,0,0,0,4,5.63,8.29,8.29,0,0,1-4.84,6.16,8.61,8.61,0,0,0-5.29-1.58c-2.47,0-4.82.89-4.82,3.22a2.4,2.4,0,0,0,2.5,2.56c.67,0,.86-.22.86-.22a1.29,1.29,0,0,1-.67-1.11,1.12,1.12,0,0,1,.4-.87,7.76,7.76,0,0,0,4,.87,12.54,12.54,0,0,0,4.37-.91,1.15,1.15,0,0,1,.11.57,1.26,1.26,0,0,1-.78,1.11,2.49,2.49,0,0,0,.9.11,1.78,1.78,0,0,0,1.91-1.78,1.22,1.22,0,0,0-.28-.85,15.56,15.56,0,0,0,5.3-4.3,23.46,23.46,0,0,0,5,2.47c-.86,3.74-2.55,6.32-5,7.7a8.69,8.69,0,0,0-5.24-1.55c-2.47,0-4.82.89-4.82,3.22a2.4,2.4,0,0,0,2.5,2.56c.67,0,.86-.22.86-.22a1.29,1.29,0,0,1-.67-1.11,1.12,1.12,0,0,1,.41-.89,7.22,7.22,0,0,0,4,1,11.28,11.28,0,0,0,4.37-.88,1.43,1.43,0,0,1,.05.44A1.26,1.26,0,0,1,80,81.14a2.49,2.49,0,0,0,.9.11,1.78,1.78,0,0,0,1.91-1.78,1.23,1.23,0,0,0-.26-.83,13.69,13.69,0,0,0,5.85-7.8,28.9,28.9,0,0,0,5.2.46,7.4,7.4,0,0,1,3.77,6.87c0,5.23-2.91,7.34-5.94,7.45a7.74,7.74,0,0,1-5.83-2.56,6.77,6.77,0,0,0,.56,3.67,6.18,6.18,0,0,0,.71,1.13c-3.3-.51-5.19-1.89-6.09-3.13,0,5.62,5.11,9.22,11.32,9.54A22.14,22.14,0,0,1,76,100.74a17.13,17.13,0,0,1-2.76-.22A9.83,9.83,0,0,1,70.81,94a9.12,9.12,0,0,1,7.29-9.23,10.16,10.16,0,0,0-10.2,10.34A11.13,11.13,0,0,0,68.59,99a7.82,7.82,0,0,1-4.39-7,7.08,7.08,0,0,1,5.61-7.34,7.62,7.62,0,0,0-8,7.89c0,5.41,3.9,8.76,9,10.15,3.08,3.46,8.39,5.63,15,5.63,13,0,22.12-8.48,22-21.93a20.25,20.25,0,0,0,2.79-10.63c0-6.26-1.65-9.81-4.66-12.68a30.43,30.43,0,0,0,9,1.44,30.48,30.48,0,0,0,1.3,9.9l.08.22q.17.43.37.82l.2.37.22.35a5.11,5.11,0,0,0,.61.75l.27.25a3.21,3.21,0,0,0,1.92.78c-2.52,5.1-6.65,12.21-6.65,20.13,0,2.56,1.12,4.67,3.7,4.67a4,4,0,0,0,4-3.45,4.4,4.4,0,0,1-3.14,1.78,1.94,1.94,0,0,1-2-2.22c0-9.12,8.74-19.12,10.2-26.35a1.38,1.38,0,0,0,1,.43c2.25,0,4.29-7.14,4.29-14.41C131.35,51,128.88,45.71,125.85,43Zm-40,62.37a19.46,19.46,0,0,1-8.89-2A24.37,24.37,0,0,0,96.26,94,16.81,16.81,0,0,0,104,90.7C102.42,99.89,95.15,105.41,85.83,105.41Z"/></clipPath><linearGradient id="linear-gradient-2" x1="119.69" y1="104.92" x2="119.69" y2="74.89" gradientUnits="userSpaceOnUse"><stop offset="0.53" stop-color="#fff" stop-opacity="0"/><stop offset="0.77" stop-color="silver" stop-opacity="0.5"/><stop offset="1" stop-color="#808181"/></linearGradient><radialGradient id="radial-gradient" cx="-4941" cy="88.65" r="15.2" gradientTransform="translate(5101.08 -1.03) scale(1.01 1)" gradientUnits="userSpaceOnUse"><stop offset="0" stop-color="#fff" stop-opacity="0"/><stop offset="0.14" stop-color="#f8f8f8" stop-opacity="0.06"/><stop offset="0.35" stop-color="#e3e4e4" stop-opacity="0.22"/><stop offset="0.6" stop-color="#c2c3c3" stop-opacity="0.48"/><stop offset="0.88" stop-color="#959696" stop-opacity="0.84"/><stop offset="1" stop-color="#808181"/></radialGradient><linearGradient id="linear-gradient-3" x1="88.87" y1="79.8" x2="98.1" y2="89.03" gradientUnits="userSpaceOnUse"><stop offset="0.06" stop-color="#fff" stop-opacity="0"/><stop offset="0.3" stop-color="#cfcfcf" stop-opacity="0.38"/><stop offset="0.55" stop-color="#a4a5a5" stop-opacity="0.72"/><stop offset="0.74" stop-color="#8a8b8b" stop-opacity="0.92"/><stop offset="0.86" stop-color="#808181"/></linearGradient><linearGradient id="linear-gradient-4" x1="84.97" y1="83.7" x2="93.59" y2="92.33" gradientUnits="userSpaceOnUse"><stop offset="0.14" stop-color="#808181"/><stop offset="0.26" stop-color="#8a8b8b" stop-opacity="0.92"/><stop offset="0.45" stop-color="#a4a5a5" stop-opacity="0.72"/><stop offset="0.7" stop-color="#cfcfcf" stop-opacity="0.38"/><stop offset="0.94" stop-color="#fff" stop-opacity="0"/></linearGradient><radialGradient id="radial-gradient-2" cx="84.69" cy="102.34" r="23.24" gradientTransform="translate(-13.38 -1.03) scale(1.01 1)" gradientUnits="userSpaceOnUse"><stop offset="0" stop-color="#6f7072"/><stop offset="0.2" stop-color="#aeaeb0" stop-opacity="0.56"/><stop offset="0.47" stop-color="#fff" stop-opacity="0"/></radialGradient><linearGradient id="linear-gradient-5" x1="85.27" y1="105.87" x2="91.07" y2="89.94" gradientUnits="userSpaceOnUse"><stop offset="0.57" stop-color="#fff" stop-opacity="0"/><stop offset="0.61" stop-color="#ddd" stop-opacity="0.27"/><stop offset="0.64" stop-color="#c0c1c1" stop-opacity="0.49"/><stop offset="0.68" stop-color="#a9a9a9" stop-opacity="0.68"/><stop offset="0.73" stop-color="#969797" stop-opacity="0.82"/><stop offset="0.78" stop-color="#8a8b8b" stop-opacity="0.92"/><stop offset="0.85" stop-color="#828383" stop-opacity="0.98"/><stop offset="1" stop-color="#808181"/></linearGradient><radialGradient id="radial-gradient-3" cx="84.75" cy="100.48" r="27.66" gradientTransform="translate(-13.38 -1.03) scale(1.01 1)" gradientUnits="userSpaceOnUse"><stop offset="0" stop-color="#808181"/><stop offset="0.09" stop-color="#949595" stop-opacity="0.84"/><stop offset="0.28" stop-color="#babbbb" stop-opacity="0.54"/><stop offset="0.47" stop-color="#d8d9d9" stop-opacity="0.3"/><stop offset="0.66" stop-color="#eee" stop-opacity="0.14"/><stop offset="0.84" stop-color="#fbfbfb" stop-opacity="0.03"/><stop offset="1" stop-color="#fff" stop-opacity="0"/></radialGradient><linearGradient id="linear-gradient-6" x1="104.77" y1="111.78" x2="100.42" y2="87.1" gradientUnits="userSpaceOnUse"><stop offset="0.58" stop-color="#fff" stop-opacity="0"/><stop offset="0.64" stop-color="#dddede" stop-opacity="0.26"/><stop offset="0.71" stop-color="#bcbcbc" stop-opacity="0.53"/><stop offset="0.78" stop-color="#a2a2a2" stop-opacity="0.74"/><stop offset="0.85" stop-color="#8f9090" stop-opacity="0.88"/><stop offset="0.92" stop-color="#848585" stop-opacity="0.97"/><stop offset="1" stop-color="#808181"/></linearGradient><radialGradient id="radial-gradient-4" cx="90.32" cy="104.27" r="41.47" xlink:href="#radial-gradient-3"/><linearGradient id="linear-gradient-7" x1="-4060.81" y1="104.92" x2="-4060.81" y2="74.89" gradientTransform="matrix(-1, 0, 0, 1, -4008.72, 0)" xlink:href="#linear-gradient-2"/><radialGradient id="radial-gradient-5" cx="-3528.46" cy="88.65" r="15.2" gradientTransform="matrix(-1.01, 0, 0, 1, -3504.89, -1.03)" xlink:href="#radial-gradient"/><linearGradient id="linear-gradient-8" x1="-3553.36" y1="64.5" x2="-3553.36" y2="64.5" gradientTransform="matrix(-1, 0, 0, 1, -3496.56, 0)" gradientUnits="userSpaceOnUse"><stop offset="0" stop-color="#fff" stop-opacity="0"/><stop offset="0.13" stop-color="#f6f6f6" stop-opacity="0.07"/><stop offset="0.36" stop-color="#dcdcdc" stop-opacity="0.27"/><stop offset="0.65" stop-color="#b3b3b3" stop-opacity="0.6"/><stop offset="0.95" stop-color="#808181"/></linearGradient><linearGradient id="linear-gradient-9" x1="-3546.53" y1="77.74" x2="-3549.1" y2="63.17" gradientTransform="matrix(-1, 0, 0, 1, -3496.56, 0)" gradientUnits="userSpaceOnUse"><stop offset="0" stop-color="#fff" stop-opacity="0"/><stop offset="0.14" stop-color="#f6f6f6" stop-opacity="0.07"/><stop offset="0.38" stop-color="#dcdcdc" stop-opacity="0.27"/><stop offset="0.68" stop-color="#b3b3b3" stop-opacity="0.6"/><stop offset="1" stop-color="#808181"/></linearGradient><radialGradient id="radial-gradient-6" cx="83.66" cy="35.18" r="3.54" gradientTransform="translate(-13.38 -1.03) scale(1.01 1)" gradientUnits="userSpaceOnUse"><stop offset="0" stop-color="#fff" stop-opacity="0"/><stop offset="0.22" stop-color="#e6e6e7" stop-opacity="0.22"/><stop offset="1" stop-color="#8e9092"/></radialGradient><radialGradient id="radial-gradient-7" cx="1031.13" cy="68.89" r="16.03" gradientTransform="matrix(-0.3, 0.95, 0.37, 0.12, 331.26, -924.31)" gradientUnits="userSpaceOnUse"><stop offset="0" stop-color="#808181"/><stop offset="0.32" stop-color="#b3b3b3" stop-opacity="0.6"/><stop offset="0.62" stop-color="#dcdcdc" stop-opacity="0.27"/><stop offset="0.86" stop-color="#f6f6f6" stop-opacity="0.07"/><stop offset="1" stop-color="#fff" stop-opacity="0"/></radialGradient><radialGradient id="radial-gradient-8" cx="-500.39" cy="43.77" r="39.58" gradientTransform="matrix(-0.97, 0.27, 0.16, 0.58, -445.07, 153.84)" gradientUnits="userSpaceOnUse"><stop offset="0" stop-color="#5d5c5d"/><stop offset="0.01" stop-color="#696869" stop-opacity="0.92"/><stop offset="0.05" stop-color="#989798" stop-opacity="0.64"/><stop offset="0.1" stop-color="#bebdbe" stop-opacity="0.4"/><stop offset="0.16" stop-color="#dbdbdb" stop-opacity="0.22"/><stop offset="0.23" stop-color="#f0f0f0" stop-opacity="0.09"/><stop offset="0.32" stop-color="#fcfcfc" stop-opacity="0.02"/><stop offset="0.59" stop-color="#fff" stop-opacity="0"/></radialGradient><linearGradient id="linear-gradient-10" x1="62.18" y1="44.11" x2="52.49" y2="29.98" gradientUnits="userSpaceOnUse"><stop offset="0.49" stop-color="#fff" stop-opacity="0"/><stop offset="0.56" stop-color="#fafafa" stop-opacity="0.04"/><stop offset="0.66" stop-color="#ececec" stop-opacity="0.15"/><stop offset="0.76" stop-color="#d5d5d5" stop-opacity="0.33"/><stop offset="0.87" stop-color="#b4b4b4" stop-opacity="0.59"/><stop offset="0.98" stop-color="#8a8b8b" stop-opacity="0.92"/><stop offset="1" stop-color="#808181"/></linearGradient><linearGradient id="linear-gradient-11" x1="38.71" y1="57.92" x2="54.92" y2="58.7" gradientUnits="userSpaceOnUse"><stop offset="0" stop-color="#808181"/><stop offset="0.06" stop-color="#989999" stop-opacity="0.81"/><stop offset="0.23" stop-color="#d0d0d0" stop-opacity="0.37"/><stop offset="0.34" stop-color="#f2f2f2" stop-opacity="0.1"/><stop offset="0.41" stop-color="#fff" stop-opacity="0"/></linearGradient><linearGradient id="linear-gradient-12" x1="1030.81" y1="79.33" x2="1028.61" y2="66.87" gradientTransform="matrix(-1, 0, 0, 1, 1080.56, 0)" gradientUnits="userSpaceOnUse"><stop offset="0" stop-color="#808181"/><stop offset="0.02" stop-color="#858585" stop-opacity="0.96"/><stop offset="0.25" stop-color="#b0b1b1" stop-opacity="0.62"/><stop offset="0.46" stop-color="#d2d3d3" stop-opacity="0.35"/><stop offset="0.66" stop-color="#ebebeb" stop-opacity="0.16"/><stop offset="0.85" stop-color="#fafafa" stop-opacity="0.04"/><stop offset="1" stop-color="#fff" stop-opacity="0"/></linearGradient><linearGradient id="linear-gradient-13" x1="42.89" y1="39.72" x2="79.8" y2="53.16" gradientUnits="userSpaceOnUse"><stop offset="0.27" stop-color="#fff" stop-opacity="0"/><stop offset="0.42" stop-color="#f1f1f1" stop-opacity="0.07"/><stop offset="0.6" stop-color="#cacaca" stop-opacity="0.28"/><stop offset="0.79" stop-color="#888a8a" stop-opacity="0.63"/><stop offset="0.95" stop-color="#434545"/></linearGradient><linearGradient id="linear-gradient-14" x1="72.06" y1="21.33" x2="82.22" y2="21.33" gradientUnits="userSpaceOnUse"><stop offset="0" stop-color="#808181"/><stop offset="0.09" stop-color="#8b8c8c" stop-opacity="0.91"/><stop offset="0.24" stop-color="#aaabab" stop-opacity="0.67"/><stop offset="0.45" stop-color="#dbdbdb" stop-opacity="0.28"/><stop offset="0.59" stop-color="#fff" stop-opacity="0"/></linearGradient><linearGradient id="linear-gradient-15" x1="76.79" y1="19.58" x2="85.54" y2="19.58" xlink:href="#linear-gradient-14"/><linearGradient id="linear-gradient-16" x1="73.44" y1="73.97" x2="72.46" y2="72.27" gradientUnits="userSpaceOnUse"><stop offset="0" stop-color="#fff" stop-opacity="0"/><stop offset="0.28" stop-color="#cfd0d1" stop-opacity="0.35"/><stop offset="0.6" stop-color="#a0a1a4" stop-opacity="0.7"/><stop offset="0.85" stop-color="#828487" stop-opacity="0.92"/><stop offset="1" stop-color="#77797d"/></linearGradient><linearGradient id="linear-gradient-17" x1="65.51" y1="76.6" x2="79.01" y2="60.52" gradientUnits="userSpaceOnUse"><stop offset="0.49" stop-color="#fff" stop-opacity="0"/><stop offset="0.53" stop-color="#dedfe0" stop-opacity="0.24"/><stop offset="0.57" stop-color="#bfbfc1" stop-opacity="0.47"/><stop offset="0.62" stop-color="#a4a6a8" stop-opacity="0.67"/><stop offset="0.68" stop-color="#909295" stop-opacity="0.82"/><stop offset="0.74" stop-color="#828487" stop-opacity="0.92"/><stop offset="0.83" stop-color="#797b7f" stop-opacity="0.98"/><stop offset="1" stop-color="#77797d"/></linearGradient><linearGradient id="linear-gradient-18" x1="63.12" y1="69.1" x2="82.15" y2="69.1" xlink:href="#linear-gradient-6"/><linearGradient id="linear-gradient-19" x1="81.93" y1="81" x2="81.02" y2="79.42" xlink:href="#linear-gradient-16"/><linearGradient id="linear-gradient-20" x1="76.6" y1="84.76" x2="84.09" y2="64.18" xlink:href="#linear-gradient-17"/><linearGradient id="linear-gradient-21" x1="71.61" y1="75.13" x2="88.65" y2="75.13" xlink:href="#linear-gradient-6"/><linearGradient id="linear-gradient-22" x1="72.61" y1="32.42" x2="72.61" y2="32.42" gradientUnits="userSpaceOnUse"><stop offset="0" stop-color="#fff"/><stop offset="0.6" stop-color="#269fd9"/></linearGradient><linearGradient id="linear-gradient-23" x1="114.98" y1="64.5" x2="114.98" y2="64.5" gradientUnits="userSpaceOnUse"><stop offset="0" stop-color="#fff"/><stop offset="0.08" stop-color="#fff" stop-opacity="0.73"/><stop offset="0.17" stop-color="#fff" stop-opacity="0.47"/><stop offset="0.24" stop-color="#fff" stop-opacity="0.27"/><stop offset="0.31" stop-color="#fff" stop-opacity="0.12"/><stop offset="0.36" stop-color="#fff" stop-opacity="0.03"/><stop offset="0.4" stop-color="#fff" stop-opacity="0"/></linearGradient><linearGradient id="linear-gradient-24" x1="121.81" y1="77.74" x2="119.24" y2="63.17" xlink:href="#linear-gradient-23"/><linearGradient id="linear-gradient-25" x1="122.02" y1="79.33" x2="119.82" y2="66.87" gradientTransform="matrix(1, 0, 0, 1, 0, 0)" xlink:href="#linear-gradient-12"/><linearGradient id="linear-gradient-26" x1="114.98" y1="64.5" x2="114.98" y2="64.5" gradientTransform="matrix(1, 0, 0, 1, 0, 0)" xlink:href="#linear-gradient-8"/><linearGradient id="linear-gradient-27" x1="95.8" y1="89.47" x2="95.8" y2="68.91" gradientTransform="matrix(1, 0, 0, 1, 0, 0)" xlink:href="#linear-gradient-8"/><radialGradient id="radial-gradient-9" cx="-228.91" cy="43.99" r="44" gradientTransform="matrix(0.97, 0.27, -0.16, 0.58, 353, 79.95)" xlink:href="#radial-gradient-8"/><linearGradient id="linear-gradient-28" x1="79.4" y1="66.85" x2="79.4" y2="3.43" gradientUnits="userSpaceOnUse"><stop offset="0.29" stop-color="#fff" stop-opacity="0"/><stop offset="0.39" stop-color="#f8f8f8" stop-opacity="0.06"/><stop offset="0.53" stop-color="#e5e5e5" stop-opacity="0.21"/><stop offset="0.71" stop-color="#c5c5c5" stop-opacity="0.46"/><stop offset="0.9" stop-color="#999a9a" stop-opacity="0.8"/><stop offset="1" stop-color="#808181"/></linearGradient><linearGradient id="linear-gradient-29" x1="106.21" y1="48.26" x2="117.65" y2="29.19" gradientUnits="userSpaceOnUse"><stop offset="0.52" stop-color="#fff" stop-opacity="0"/><stop offset="0.59" stop-color="#fafafa" stop-opacity="0.04"/><stop offset="0.67" stop-color="#ececec" stop-opacity="0.15"/><stop offset="0.75" stop-color="#d5d5d5" stop-opacity="0.33"/><stop offset="0.84" stop-color="#b4b4b4" stop-opacity="0.59"/><stop offset="0.93" stop-color="#8a8b8b" stop-opacity="0.92"/><stop offset="0.96" stop-color="#808181"/></linearGradient><linearGradient id="linear-gradient-30" x1="21.49" y1="57.67" x2="37.7" y2="58.44" gradientTransform="matrix(-1, 0, 0, 1, 153.87, 0)" gradientUnits="userSpaceOnUse"><stop offset="0" stop-color="#808181"/><stop offset="0.02" stop-color="#898a8a" stop-opacity="0.93"/><stop offset="0.15" stop-color="#bcbcbc" stop-opacity="0.53"/><stop offset="0.25" stop-color="#e0e1e1" stop-opacity="0.24"/><stop offset="0.34" stop-color="#f7f7f7" stop-opacity="0.06"/><stop offset="0.4" stop-color="#fff" stop-opacity="0"/></linearGradient><linearGradient id="linear-gradient-31" x1="121.81" y1="77.74" x2="119.24" y2="63.17" gradientTransform="matrix(1, 0, 0, 1, 0, 0)" xlink:href="#linear-gradient-9"/><radialGradient id="radial-gradient-10" cx="137.13" cy="68.89" r="16.03" gradientTransform="matrix(0.3, 0.95, -0.37, 0.12, 109.35, -70.99)" xlink:href="#radial-gradient-7"/><linearGradient id="linear-gradient-32" x1="98.48" y1="64.94" x2="114.87" y2="36.55" gradientUnits="userSpaceOnUse"><stop offset="0.05" stop-color="#434545"/><stop offset="0.17" stop-color="#848585" stop-opacity="0.66"/><stop offset="0.34" stop-color="#c7c8c8" stop-opacity="0.3"/><stop offset="0.49" stop-color="#f1f1f1" stop-opacity="0.08"/><stop offset="0.61" stop-color="#fff" stop-opacity="0"/></linearGradient><linearGradient id="linear-gradient-33" x1="61.11" y1="72.88" x2="63.05" y2="71.76" gradientUnits="userSpaceOnUse"><stop offset="0" stop-color="#808181"/><stop offset="0.04" stop-color="#898a8a" stop-opacity="0.93"/><stop offset="0.26" stop-color="#bcbcbc" stop-opacity="0.53"/><stop offset="0.45" stop-color="#e0e1e1" stop-opacity="0.24"/><stop offset="0.6" stop-color="#f7f7f7" stop-opacity="0.06"/><stop offset="0.7" stop-color="#fff" stop-opacity="0"/></linearGradient><linearGradient id="linear-gradient-34" x1="69.6" y1="79.91" x2="71.54" y2="78.8" xlink:href="#linear-gradient-33"/><linearGradient id="linear-gradient-35" x1="85.54" y1="79.35" x2="97.27" y2="91.09" xlink:href="#linear-gradient-4"/><linearGradient id="linear-gradient-36" x1="70.85" y1="68.3" x2="94.73" y2="39.83" xlink:href="#linear-gradient-32"/><radialGradient id="radial-gradient-11" cx="96.07" cy="29.49" r="13.59" gradientTransform="translate(-13.38 -1.03) scale(1.01 1)" gradientUnits="userSpaceOnUse"><stop offset="0" stop-color="#fff" stop-opacity="0"/><stop offset="0.22" stop-color="#e7e8e8" stop-opacity="0.19"/><stop offset="0.69" stop-color="#abacac" stop-opacity="0.66"/><stop offset="1" stop-color="#808181"/></radialGradient><linearGradient id="linear-gradient-37" x1="89.28" y1="21.18" x2="92.62" y2="18.37" gradientUnits="userSpaceOnUse"><stop offset="0" stop-color="#fff" stop-opacity="0"/><stop offset="0.05" stop-color="#f6f6f6" stop-opacity="0.07"/><stop offset="0.37" stop-color="#c4c4c4" stop-opacity="0.47"/><stop offset="0.64" stop-color="#9fa0a0" stop-opacity="0.76"/><stop offset="0.86" stop-color="#888989" stop-opacity="0.93"/><stop offset="1" stop-color="#808181"/></linearGradient><linearGradient id="linear-gradient-38" x1="3.38" y1="195.33" x2="40.42" y2="195.33" gradientUnits="userSpaceOnUse"><stop offset="0" stop-color="#cccbca"/><stop offset="0.13" stop-color="#d7d6d5"/><stop offset="0.44" stop-color="#ededec"/><stop offset="0.74" stop-color="#fafafa"/><stop offset="1" stop-color="#fff"/></linearGradient><linearGradient id="linear-gradient-39" x1="132.59" y1="205.48" x2="162.92" y2="175.15" gradientUnits="userSpaceOnUse"><stop offset="0" stop-color="#cccbca"/><stop offset="0.37" stop-color="#e5e5e4"/><stop offset="0.74" stop-color="#f8f8f8"/><stop offset="1" stop-color="#fff"/></linearGradient><linearGradient id="linear-gradient-40" x1="64.11" y1="222.05" x2="89.91" y2="196.24" gradientUnits="userSpaceOnUse"><stop offset="0" stop-color="#cccbca"/><stop offset="0.07" stop-color="#d2d1d0"/><stop offset="0.43" stop-color="#ebeaea"/><stop offset="0.75" stop-color="#fafafa"/><stop offset="1" stop-color="#fff"/></linearGradient><linearGradient id="linear-gradient-41" x1="45.8" y1="203.74" x2="71.58" y2="177.96" xlink:href="#linear-gradient-40"/><linearGradient id="linear-gradient-42" x1="106.37" y1="195.32" x2="124.56" y2="195.32" gradientUnits="userSpaceOnUse"><stop offset="0" stop-color="#cccbca"/><stop offset="0.01" stop-color="#cdcccb"/><stop offset="0.21" stop-color="#e3e3e2"/><stop offset="0.43" stop-color="#f3f3f2"/><stop offset="0.68" stop-color="#fcfcfc"/><stop offset="1" stop-color="#fff"/></linearGradient></defs><title>logo</title><g class="cls-2"><g id="Layer_2" data-name="Layer 2"><g id="Layer_1-2" data-name="Layer 1"><rect class="cls-3" x="24.69" y="1.57" width="122.74" height="122.74" rx="27.84" ry="27.84"/><path class="cls-4" d="M126.93.93A29.2,29.2,0,0,1,131,2.31,29.2,29.2,0,0,0,126.93.93Z"/><path class="cls-4" d="M147.21,19.31q-.5-1.35-1.12-2.64-.31-.64-.65-1.27a29.58,29.58,0,0,0-5.07-6.78q-1-1-2.09-1.9A29.47,29.47,0,0,0,131,2.31,29.23,29.23,0,0,0,119.59,0H52.53A29.5,29.5,0,0,0,26.68,15.4q-.34.63-.65,1.27-.62,1.29-1.12,2.64-.25.68-.46,1.37a29.31,29.31,0,0,0-1.32,8.74V96.47a29.44,29.44,0,0,0,29.41,29.41h67.06a29.33,29.33,0,0,0,18.7-6.72q1.09-.9,2.09-1.9t1.9-2.09q.9-1.09,1.69-2.26t1.47-2.43a29.19,29.19,0,0,0,3.4-11,29.62,29.62,0,0,0,.15-3V29.41a29.31,29.31,0,0,0-1.32-8.74Q147.46,20,147.21,19.31Zm.22,77.16a27.87,27.87,0,0,1-27.84,27.84H52.53A27.87,27.87,0,0,1,24.69,96.47V29.41A27.87,27.87,0,0,1,52.53,1.57h67.06a27.87,27.87,0,0,1,27.84,27.84Z"/><g class="cls-5"><path class="cls-4" d="M113.3,98.07c0,2.56,1.12,4.67,3.7,4.67a4,4,0,0,0,4-3.45,4.4,4.4,0,0,1-3.14,1.78,1.94,1.94,0,0,1-2-2.22c0-9.12,8.74-19.12,10.2-26.35h-4.23C121.84,77,113.3,86.69,113.3,98.07Z"/><path class="cls-6" d="M113.3,98.07c0,2.56,1.12,4.67,3.7,4.67a4,4,0,0,0,4-3.45,4.4,4.4,0,0,1-3.14,1.78,1.94,1.94,0,0,1-2-2.22c0-9.12,8.74-19.12,10.2-26.35h-4.23C121.84,77,113.3,86.69,113.3,98.07Z"/><path class="cls-7" d="M121.84,72.5c0,4.48-8.55,14.18-8.55,25.57,0,2.56,1.12,4.67,3.7,4.67a4,4,0,0,0,3.27-1.6,3.14,3.14,0,0,1-2.73,1.06c-2.45,0-3.09-2.06-3.09-3.75A27.05,27.05,0,0,1,116.14,90c1.55-4.6,7.72-13.68,7.72-17.52Z"/><path class="cls-4" d="M85.61,83.07a6.77,6.77,0,0,0,.56,3.67A6.62,6.62,0,0,0,92,90.4a19.59,19.59,0,0,0,7.51-2.78l-2.13-9.45c0,5.23-2.91,7.34-5.94,7.45A7.74,7.74,0,0,1,85.61,83.07Z"/><path class="cls-8" d="M85.61,83.07a6.77,6.77,0,0,0,.56,3.67A6.62,6.62,0,0,0,92,90.4a19.59,19.59,0,0,0,7.51-2.78l-2.13-9.45c0,5.23-2.91,7.34-5.94,7.45A7.74,7.74,0,0,1,85.61,83.07Z"/><path class="cls-9" d="M92,90.4a6.62,6.62,0,0,1-5.83-3.67,6.77,6.77,0,0,1-.56-3.67s.47,4.5,6.39,5.34Z"/><path class="cls-4" d="M76.64,103.41c15.58,0,24.77-12.67,25.34-24.57H98.84c-.56,10.78-8.63,21.9-22.87,21.9C70.36,100.74,64.2,98,64.2,92a7.08,7.08,0,0,1,5.61-7.34,7.62,7.62,0,0,0-8,7.89C61.84,99.85,69,103.41,76.64,103.41Z"/><path class="cls-10" d="M76,100.74a24,24,0,0,0,7.86-1.27L85.16,102a25.71,25.71,0,0,1-8.22,1.4,12.42,12.42,0,0,1-3.73-2.89A17.13,17.13,0,0,0,76,100.74ZM68.59,99a7.82,7.82,0,0,1-4.39-7,7.08,7.08,0,0,1,5.61-7.34,7.62,7.62,0,0,0-8,7.89c0,5.41,3.9,8.76,9,10.15A11.65,11.65,0,0,1,68.59,99Z"/><path class="cls-11" d="M93,94.29l-.9,0a21.55,21.55,0,0,1-11.51,6.05l1,2.63A24.18,24.18,0,0,0,96.26,94,20.38,20.38,0,0,1,93,94.29Z"/><path class="cls-12" d="M69.8,84.62a7.62,7.62,0,0,0-8,7.89c0,7.34,7.17,10.9,14.8,10.9,15.58,0,24.77-12.67,25.34-24.57h-1.82c0,9.77-7.43,23-24.1,23-9.11,0-12.93-4.78-12.93-10A7.26,7.26,0,0,1,69.8,84.62Z"/><path class="cls-4" d="M85.83,108.3c15.47,0,25.45-12,21-30.13l-3.59.44c4.48,16.23-4.48,26.79-17.38,26.79-8,0-15-4.11-15-11.45a9.12,9.12,0,0,1,7.29-9.23,10.16,10.16,0,0,0-10.2,10.34C67.89,102.63,75.18,108.3,85.83,108.3Z"/><path class="cls-13" d="M104,90.7A17.07,17.07,0,0,1,95.63,103l1,3c6.94-3.4,11.25-10.31,11.2-19.58A16.25,16.25,0,0,1,104,90.7Z"/><path class="cls-14" d="M78.1,84.73a10.16,10.16,0,0,0-10.2,10.34c0,7.56,7.29,13.23,17.94,13.23,15.47,0,25.45-12,21-30.13l-1.55.28a38.49,38.49,0,0,1,.85,9.17c0,8.54-5.89,19-20.09,19-9.64,0-16.44-4.63-16.44-12S75.64,84.73,78.1,84.73Z"/><path class="cls-4" d="M58.48,98.07c0,2.56-1.12,4.67-3.7,4.67a4,4,0,0,1-4-3.45,4.4,4.4,0,0,0,3.14,1.78,1.94,1.94,0,0,0,2-2.22c0-9.12-8.74-19.12-10.2-26.35h4.23C49.93,77,58.48,86.69,58.48,98.07Z"/><path class="cls-15" d="M58.48,98.07c0,2.56-1.12,4.67-3.7,4.67a4,4,0,0,1-4-3.45,4.4,4.4,0,0,0,3.14,1.78,1.94,1.94,0,0,0,2-2.22c0-9.12-8.74-19.12-10.2-26.35h4.23C49.93,77,58.48,86.69,58.48,98.07Z"/><path class="cls-16" d="M49.93,72.5c0,4.48,8.55,14.18,8.55,25.57,0,2.56-1.12,4.67-3.7,4.67a4,4,0,0,1-3.27-1.6,3.14,3.14,0,0,0,2.73,1.06c2.45,0,3.09-2.06,3.09-3.75A27.05,27.05,0,0,0,55.64,90c-1.55-4.6-7.72-13.68-7.72-17.52Z"/><path class="cls-4" d="M45.7,72.5S47.14,78,51.61,78c4.07,0,5.18-6.48,5.18-13.45C69.13,64.5,78.54,54,79,44.82L74.4,30.59c-1.46,2.67-1.92,4.08-4.5,4.08-1.91,0-2.46-1.39-2.46-3.63,0-2.89-.78-4.22-4-4.22-7.88,0-18.3,10.5-18.3,14.73a2,2,0,0,0,.81,1.5c-3,2.67-5.49,8-5.49,15.48,0,7.27,2,14.41,4.29,14.41A1.38,1.38,0,0,0,45.7,72.5Z"/><polygon class="cls-17" points="56.8 64.5 56.8 64.5 56.8 64.5 56.8 64.5"/><path class="cls-18" d="M45.7,72.5c.93-.88,2.73-3.89,3.24-10a14.78,14.78,0,0,0,7.86,2C56.8,71.12,55.68,78,51.61,78c-4.47,0-5.91-5.45-5.91-5.45Z"/><path class="cls-19" d="M74.4,30.59c-1.46,2.67-1.92,4.08-4.5,4.08a2.06,2.06,0,0,1-2-1,3.78,3.78,0,0,1-.4-1.32A9.26,9.26,0,0,1,67.45,31v2.74c0,1.45.28,3.95,2.58,3.95S75.19,34.61,74.4,30.59Z"/><path class="cls-20" d="M48.94,62.54a59.84,59.84,0,0,0-.37-12.21c4.75,0,8.23,5.15,8.23,14.17C56.8,71.12,55.68,78,51.61,78c-4.47,0-5.91-5.45-5.91-5.45C46.63,71.62,48.43,68.61,48.94,62.54Z"/><path class="cls-21" d="M68.47,40.63a29.46,29.46,0,0,1-7.36,13.09c-7.8,8.09-20.68,12.06-20.68,4.79C40.43,51,42.9,45.71,45.92,43c3.83,3.28,13.72,1.18,20.42-4.61"/><path class="cls-22" d="M66.55,33.77V31A4,4,0,0,0,66,28.42a1.78,1.78,0,0,0-.83-.51,5.83,5.83,0,0,0-1.73-.21,13.13,13.13,0,0,0-5.78,1.61,27.94,27.94,0,0,0-5.73,3.94A27.39,27.39,0,0,0,47.6,38,7.52,7.52,0,0,0,46,41.54c0,.2.06.45.5.83a7.17,7.17,0,0,0,4.67,1.33,17,17,0,0,0,3.48-.39,23.5,23.5,0,0,0,3.78-1.15,25.86,25.86,0,0,0,7.31-4.4l0,0,0,0a3,3,0,0,0,1-2A8.71,8.71,0,0,1,66.55,33.77Z"/><path class="cls-23" d="M44.72,72c.06,0,.17,0,.36-.18a8,8,0,0,0,1.56-2.71A24.27,24.27,0,0,0,48,62.47a43.79,43.79,0,0,0,0-5.54c-.11-2-.33-4-.63-5.94a26.36,26.36,0,0,0-1.63-6.57,15,15,0,0,0-2.91,4.86,25.82,25.82,0,0,0-1.55,9.24,36,36,0,0,0,1.27,9.68C43.51,71.34,44.46,72,44.72,72Z"/><path class="cls-24" d="M53.48,76.19a2.43,2.43,0,0,1-1.87.88,4.61,4.61,0,0,1-3.87-2.29,9.37,9.37,0,0,1-1-2.05,11.21,11.21,0,0,0,1.6-2.93,24.41,24.41,0,0,0,1.38-5.84,14.16,14.16,0,0,0,2.42.87,17.81,17.81,0,0,0,3.79.55,30.17,30.17,0,0,1-1,8.08A7.29,7.29,0,0,1,53.48,76.19Z"/><path class="cls-25" d="M74.4,30.59c-1.46,2.67-1.92,4.08-4.5,4.08-1.91,0-2.46-1.39-2.46-3.63,0-2.89-.78-4.22-4-4.22-7.88,0-18.3,10.5-18.3,14.73a2,2,0,0,0,.81,1.5l2.64,7.29a59.84,59.84,0,0,1,.37,12.21h0a14.78,14.78,0,0,0,7.86,2C69.13,64.5,78.54,54,79,44.82Z"/><path class="cls-4" d="M82.5,19.74c-1.57,1.45-3,2.61-4.82,2.61-2.19,0-4.53-.88-5-2.66a2.12,2.12,0,0,0,.4.05,1.12,1.12,0,0,0,1.12-1.25c0-.73-.57-1.14-1.38-1.14a1.55,1.55,0,0,0-1.54,1.72c0,2.26,2.22,5.05,6.17,5.05,2.24,0,5.27-.94,5.83-1.61Z"/><path class="cls-26" d="M80.22,21.57a4.8,4.8,0,0,1-2.54.79c-2.19,0-4.53-.88-5-2.66a1.72,1.72,0,0,1-.63-.31s.37,3.81,5.9,3.83c0,0,2.94.08,3.95.07l.32-.13c-.07-.34-.31-1.36-.31-1.36Z"/><path class="cls-4" d="M83.78,18.68a8.12,8.12,0,0,1-4,1.32,5,5,0,0,1-2.18-.29,1.19,1.19,0,0,0,1-1.21,1.26,1.26,0,0,0-1.32-1.15,1.36,1.36,0,0,0-1.41,1.36c0,1.85,2,2.75,4.13,2.75,4.26,0,6.28-1.78,6.28-3.22C86,18.25,85.82,17.7,83.78,18.68Z"/><path class="cls-27" d="M81.34,20.57c3.3-.61,4.2-.83,4.2-.83l-1.26-1.29-.49.22a8.12,8.12,0,0,1-4,1.32,5,5,0,0,1-2.18-.29,1.16,1.16,0,0,1-.86-.21S78,21.18,81.34,20.57Z"/><path class="cls-4" d="M63.85,72.45a7.76,7.76,0,0,0,4,.87,12.54,12.54,0,0,0,4.37-.91,1.15,1.15,0,0,1,.11.57,1.26,1.26,0,0,1-.78,1.11,2.49,2.49,0,0,0,.9.11,1.78,1.78,0,0,0,1.91-1.78,1.22,1.22,0,0,0-.28-.85c3.55-1.84,6.56-4.85,6.56-7.6H75.78c-.75,3.48-2.52,5.43-4.91,6.48a8.61,8.61,0,0,0-5.29-1.58c-2.47,0-4.82.89-4.82,3.22a2.4,2.4,0,0,0,2.5,2.56c.67,0,.86-.22.86-.22a1.29,1.29,0,0,1-.67-1.11A1.12,1.12,0,0,1,63.85,72.45Z"/><path class="cls-28" d="M72.19,72.42a1.15,1.15,0,0,1,.11.57,1.26,1.26,0,0,1-.78,1.11,2.49,2.49,0,0,0,.9.11,1.78,1.78,0,0,0,1.91-1.78,1.22,1.22,0,0,0-.28-.85A18,18,0,0,1,72.19,72.42Z"/><path class="cls-29" d="M67.82,73.33c5.27,0,12.78-5,12.78-9.34H75.78c-1.35,6.23-5.94,7.56-11.55,7.56l-.9.44C64.12,73,66.14,73.33,67.82,73.33Z"/><path class="cls-30" d="M72.19,72.42h0a1.15,1.15,0,0,1,.11.57,1.26,1.26,0,0,1-.78,1.11,1.54,1.54,0,0,0,1.73-1.54,1.78,1.78,0,0,0-.1-.55Q72.67,72.23,72.19,72.42Z"/><path class="cls-30" d="M63.12,71.59a1.42,1.42,0,0,0-.93,1.26,1.74,1.74,0,0,0,1.93,1.59,1.29,1.29,0,0,1-.67-1.11,1.12,1.12,0,0,1,.41-.89A3.05,3.05,0,0,1,63.12,71.59Z"/><path class="cls-31" d="M80.6,64H79l-.21,0C77,68.66,73.23,72.35,67.3,72.35c-3.17,0-4.18-.76-4.18-.76a3.05,3.05,0,0,0,.75.85h0a7.76,7.76,0,0,0,4,.87,12.54,12.54,0,0,0,4.37-.91,1.15,1.15,0,0,1,.11.57,1.26,1.26,0,0,1-.78,1.11,2.49,2.49,0,0,0,.9.11,1.78,1.78,0,0,0,1.91-1.78,1.22,1.22,0,0,0-.28-.85C77.59,69.75,80.6,66.73,80.6,64Z"/><path class="cls-4" d="M88.65,69H84.5c-.81,4.14-2.55,7-5.19,8.44a8.69,8.69,0,0,0-5.24-1.55c-2.47,0-4.82.89-4.82,3.22a2.4,2.4,0,0,0,2.5,2.56c.67,0,.86-.22.86-.22a1.29,1.29,0,0,1-.67-1.11,1.12,1.12,0,0,1,.41-.89,7.22,7.22,0,0,0,4,1,11.28,11.28,0,0,0,4.37-.88,1.43,1.43,0,0,1,.05.44A1.26,1.26,0,0,1,80,81.14a2.49,2.49,0,0,0,.9.11,1.78,1.78,0,0,0,1.91-1.78,1.23,1.23,0,0,0-.26-.83C86.33,76.26,88.65,72,88.65,69Z"/><path class="cls-32" d="M80.74,79.58a1.43,1.43,0,0,1,.05.44A1.26,1.26,0,0,1,80,81.14a2.49,2.49,0,0,0,.9.11,1.78,1.78,0,0,0,1.91-1.78,1.23,1.23,0,0,0-.26-.83A12.32,12.32,0,0,1,80.74,79.58Z"/><path class="cls-33" d="M76.37,80.47c7.29,0,12.28-7,12.28-11.45H84.5c-1.23,6.34-4.65,9.61-10.15,9.61l-2.47.4C72.67,80,74.58,80.47,76.37,80.47Z"/><path class="cls-4" d="M77.62,78.42l-.12,0,.12,0"/><path class="cls-4" d="M77.62,78.42l-.12,0,.12,0"/><path class="cls-30" d="M80.74,79.58a1.42,1.42,0,0,1,.06.44A1.26,1.26,0,0,1,80,81.14a1.54,1.54,0,0,0,1.73-1.54,1.69,1.69,0,0,0-.07-.45Q81.22,79.39,80.74,79.58Z"/><path class="cls-30" d="M71.61,78.62a1.42,1.42,0,0,0-.93,1.26,1.74,1.74,0,0,0,1.93,1.59,1.29,1.29,0,0,1-.67-1.11,1.12,1.12,0,0,1,.41-.89A3.05,3.05,0,0,1,71.61,78.62Z"/><path class="cls-34" d="M88.65,69H87c0,5.36-5.28,10.59-11.15,10.59a7.46,7.46,0,0,1-4.26-1,3.05,3.05,0,0,0,.75.85,7.22,7.22,0,0,0,4,1,11.28,11.28,0,0,0,4.37-.88,1.43,1.43,0,0,1,.05.44A1.26,1.26,0,0,1,80,81.14a2.49,2.49,0,0,0,.9.11,1.78,1.78,0,0,0,1.91-1.78,1.23,1.23,0,0,0-.26-.83C86.33,76.26,88.65,72,88.65,69Z"/><path class="cls-4" d="M120.16,78c4.47,0,5.91-5.45,5.91-5.45a1.38,1.38,0,0,0,1,.43c2.25,0,4.29-7.14,4.29-14.41,0-7.51-2.47-12.81-5.49-15.48a1.65,1.65,0,0,0,.56-1.29c0-4-14-14.16-22-14.16-6.68,0-3.71,11-10.72,11-3.36,0-5.41-1.82-5.41-5.87l-6,8.43C82.8,50.38,99.51,64.5,115,64.5,115,71.12,116.09,78,120.16,78Z"/><path class="cls-35" d="M72.61,32.42"/><path class="cls-4" d="M74.4,28.15"/><path class="cls-4" d="M100.62,59.08c-4-2.53-12.31-7.63-12.31-26.36,0-5,3.42-8.47,7.57-8.47,3.25,0,4.86.89,4.86,1.89a2.74,2.74,0,0,0,1.35-2.22c0-1.67-2-3.22-6.05-3.22-1.12-2-4.15-3.34-7.17-3.34-6.9,0-19.73,9.15-19.73,29,0,16.62,11.51,24.93,24.48,24.93a7.4,7.4,0,0,1,3.77,6.87c0,5.89-2.91,9.89-7.74,9.89-5,0-7.74-1.78-8.86-3.34,0,5.89,5.61,9.56,12.22,9.56,10.65,0,17.66-7.77,17.66-18.55C110.66,66.4,107,63.08,100.62,59.08Z"/><polygon class="cls-36" points="114.98 64.5 114.98 64.5 114.98 64.5 114.98 64.5"/><path class="cls-37" d="M126.08,72.5c-.93-.88-2.73-3.89-3.24-10a14.78,14.78,0,0,1-7.86,2c0,6.62,1.11,13.45,5.18,13.45,4.47,0,5.91-5.45,5.91-5.45Z"/><path class="cls-38" d="M118.3,76.19a2.43,2.43,0,0,0,1.87.88A4.61,4.61,0,0,0,124,74.77a9.37,9.37,0,0,0,1-2.05,11.21,11.21,0,0,1-1.6-2.93,24.41,24.41,0,0,1-1.38-5.84,14.16,14.16,0,0,1-2.42.87,17.81,17.81,0,0,1-3.79.55,30.16,30.16,0,0,0,1,8.08A7.29,7.29,0,0,0,118.3,76.19Z"/><polygon class="cls-39" points="114.98 64.5 114.98 64.5 114.98 64.5 114.98 64.5"/><path class="cls-40" d="M89.64,88.07c4.82,0,7.74-4,7.74-9.89a7.4,7.4,0,0,0-3.77-6.87,16.64,16.64,0,0,0,8-2.4s3.13,2.09,3.13,8.26c0,7.51-4.94,12.3-10.74,12.3-4.78,0-7.11-1.6-7.11-1.6Z"/><path class="cls-41" d="M110.66,53.73c7.8,8.09,20.68,12.06,20.68,4.79,0-7.51-2.47-12.81-5.49-15.48-4.44,3.8-17,.38-23.33-7.64A28.39,28.39,0,0,0,110.66,53.73Z"/><path class="cls-42" d="M76.39,63.72a21.33,21.33,0,0,0,6.81,4.63A24.75,24.75,0,0,0,88.78,70l-.27-.27A60.3,60.3,0,0,1,83.45,64a48.45,48.45,0,0,1-5.33-8.6,31.72,31.72,0,0,1-3.07-10.62c-.72-7.72.42-14.1,3.38-18.94a18.83,18.83,0,0,1,7.8-7.15,15.24,15.24,0,0,0-2.95,1.22A22,22,0,0,0,77.09,25a28,28,0,0,0-5,8.77A37.28,37.28,0,0,0,70,46.38a28,28,0,0,0,1.73,10.05A21.11,21.11,0,0,0,76.39,63.72Z"/><path class="cls-43" d="M117.93,33.9a40.83,40.83,0,0,0-7-3.85,17.76,17.76,0,0,0-6.45-1.58c-1.46,0-2.42.53-2.77,1.46-1.49,3.93,3.67,7.3,9.76,11.45,2.87,2,6.77,2.29,9.39,2.29a6.81,6.81,0,0,0,4.41-1.28.77.77,0,0,0,.27-.65c0-.69-.77-1.92-2.06-3.29A34.48,34.48,0,0,0,117.93,33.9Z"/><path class="cls-44" d="M126.91,71.77c-.06,0-.17,0-.36-.18A8,8,0,0,1,125,68.87a24.27,24.27,0,0,1-1.41-6.68,43.82,43.82,0,0,1,0-5.54c.11-2,.33-4,.63-5.94a26.37,26.37,0,0,1,1.63-6.57A15,15,0,0,1,128.76,49a25.82,25.82,0,0,1,1.55,9.24A36,36,0,0,1,129,67.93C128.12,71.06,127.17,71.77,126.91,71.77Z"/><path class="cls-45" d="M126.08,72.5c-.93-.88-2.73-3.89-3.24-10a14.78,14.78,0,0,1-7.86,2c0,6.62,1.11,13.45,5.18,13.45,4.47,0,5.91-5.45,5.91-5.45Z"/><path class="cls-46" d="M122.84,62.54a59.83,59.83,0,0,1,.37-12.21c-4.75,0-8.23,5.15-8.23,14.17,0,6.62,1.11,13.45,5.18,13.45,4.47,0,5.91-5.45,5.91-5.45C125.15,71.62,123.35,68.61,122.84,62.54Z"/><path class="cls-47" d="M122.84,62.54a59.83,59.83,0,0,1,.37-12.21L125.85,43h0a1.63,1.63,0,0,0,.56-1.29c0-4-14-14.16-22-14.16-6.68,0,1.06,14.59-9.52,14.59a31.33,31.33,0,0,1-5.86-.71,24.08,24.08,0,0,0,16.3,21.38A30.82,30.82,0,0,0,115,64.5a15.15,15.15,0,0,0,7.86-2Z"/><path class="cls-48" d="M61.69,73.75a2,2,0,0,0,.89.51,1.71,1.71,0,0,1-.7-1.41,1.62,1.62,0,0,1,.83-1.4l-.63-1.36a2.38,2.38,0,0,0-1,2A2.27,2.27,0,0,0,61.69,73.75Z"/><path class="cls-49" d="M70.18,80.78a2,2,0,0,0,.89.51,1.72,1.72,0,0,1-.7-1.41,1.62,1.62,0,0,1,.83-1.4l-.63-1.35a2.38,2.38,0,0,0-1,2A2.27,2.27,0,0,0,70.18,80.78Z"/><path class="cls-50" d="M80.79,84.73c0,5.89,5.61,9.56,12.22,9.56,6.18,0,11.13-2.62,14.2-6.92l-5.06-2a11.48,11.48,0,0,1-9.89,5.85C86.08,91.25,82.36,89.47,80.79,84.73Z"/><path class="cls-51" d="M100.62,59.08c-4-2.53-12.31-7.63-12.31-26.36,0-5,3.42-8.47,7.57-8.47,3.25,0,4.86.89,4.86,1.89a2.74,2.74,0,0,0,1.35-2.22c0-1.67-2-3.22-6.05-3.22-1.12-2-4.15-3.34-7.17-3.34-6.9,0-19.73,9.15-19.73,29,0,16.62,11.51,24.93,24.48,24.93a16.64,16.64,0,0,0,8-2.4l-.49-5Z"/><path class="cls-52" d="M93.72,38.6c-3.36,0-5.41-1.82-5.41-5.87,0-5,3.42-8.47,7.57-8.47,3.25,0,4.86.89,4.86,1.89,0-2-2-3.51-5.43-3.51-6.52,0-10,4.17-10,10.22A6.32,6.32,0,0,0,92,39.38a6.72,6.72,0,0,0,5.11-2.11A4.41,4.41,0,0,1,93.72,38.6Z"/><path class="cls-53" d="M90.89,18.67c1.8,0,3.13.86,3.13,1.71-.24.47-.94,1-2.25,1-1.69,0-3.05-1.35-4.11-2.09A8.66,8.66,0,0,1,90.89,18.67Z"/><path class="cls-4" d="M92.87,20.85A1.42,1.42,0,0,0,94,20.38a1,1,0,0,0-.45-.56.65.65,0,0,1-.67.7.67.67,0,0,1-.73-.74.73.73,0,0,1,.13-.36,2.2,2.2,0,0,0-.9,0A1.39,1.39,0,0,0,92.87,20.85Z"/></g><rect class="cls-4" x="139.42" y="138.39" width="4" height="3.57"/><rect class="cls-4" x="139.55" y="143.94" width="3.88" height="14.54"/><path class="cls-4" d="M131.29,143.94h-4.75v3H131c2.06,0,2.25.7,2.25,2.07v.26h-3c-3.31,0-5,1.5-5,4.56,0,2.23.88,4.75,4.31,4.75a5.07,5.07,0,0,0,3.81-1.82v1.69h3.75V149C137.11,145.28,135.6,143.94,131.29,143.94Zm1.94,10a3.1,3.1,0,0,1-2.63,1.69,1.59,1.59,0,0,1-1.81-1.72c0-1,.47-1.78,2.13-1.78h2.31Z"/><path class="cls-4" d="M110.64,158.47h3.88v-10a3.09,3.09,0,0,1,2.72-1.69,1.94,1.94,0,0,1,2.1,2.17v9.56h3.85v-9.4c0-3.79-1.69-5.32-4.47-5.32a5.2,5.2,0,0,0-4.19,1.88v-7.24h-3.88Z"/><path class="cls-4" d="M105.21,158.47h3.28v-3h-2.38c-1,0-1.41-.48-1.41-1.88v-6.76h3.78v-2.87h-3.78v-5.55H100.8v14.86C100.8,156.94,102.08,158.47,105.21,158.47Z"/><path class="cls-4" d="M94.61,143.94V145a5,5,0,0,0-3.5-1.28c-3.28,0-5.57,2.45-5.57,7.49,0,4.78,2,7.24,5.47,7.24a4.85,4.85,0,0,0,3.47-1.21v.92c0,2.23-.78,3-3.06,3H87.29v3h4.63c4.53,0,6.44-1.47,6.44-6V143.94Zm-.13,10.52a4.44,4.44,0,0,1-2.47,1c-1.38,0-2.63-1.05-2.63-4.34,0-3.12,1.13-4.37,2.72-4.37a3.65,3.65,0,0,1,2.38,1Z"/><path class="cls-4" d="M70.94,158.47h3.88v-10a3.09,3.09,0,0,1,2.72-1.69,1.94,1.94,0,0,1,2.09,2.17v9.56h3.85v-9.4c0-3.79-1.69-5.32-4.47-5.32a5.49,5.49,0,0,0-4.32,1.88v-1.69H70.94Z"/><path class="cls-4" d="M68.35,143.94H64.47v10a3.09,3.09,0,0,1-2.72,1.69,1.94,1.94,0,0,1-2.1-2.17v-9.56H55.81v9.4c0,3.79,1.69,5.32,4.47,5.32a5.49,5.49,0,0,0,4.32-1.88v1.69h3.75Z"/><path class="cls-4" d="M45.31,158.47h3.88v-9.05a4.66,4.66,0,0,1,4.1-1.79h1.06v-3.86h-.94a4.83,4.83,0,0,0-4.35,2.58v-2.42H45.31Z"/><polygon class="cls-4" points="39.52 158.47 44.17 158.47 37.67 147.99 43.36 138.39 38.86 138.39 33.42 148.11 39.52 158.47"/><rect class="cls-4" x="28.7" y="138.39" width="4.13" height="20.08"/><path class="cls-4" d="M147.87,180.49h-14v-7h38.26v7h-14v36.65H147.87Z"/><path class="cls-54" d="M0,173.51H10.87l20.11,31v-31h9.7v43.63H29.81l-20.11-31v31H0Z"/><path class="cls-4" d="M48,173.51H81.11v7H58.26V192H79v6.61H58.26v11.59H81.11v7H48Z"/><polygon class="cls-4" points="9.7 186.16 9.7 173.51 0 173.51 0 217.14 9.7 217.14 9.7 186.16"/><path class="cls-55" d="M147.87,187.82c1.3,11.88,5.81,18.82,10.25,22.82V180.49h14v-7H133.86v7h14Z"/><path class="cls-56" d="M81.11,215.28v-5.13H65.77A53,53,0,0,0,81.11,215.28Z"/><path class="cls-57" d="M58.26,205.06v-6.5H79V192H58.26V180.49H81.11v-7H48v13.14A30.46,30.46,0,0,0,58.26,205.06Z"/><polygon class="cls-58" points="128.61 173.51 116.59 173.51 105.89 189.09 101.96 194.77 101.96 194.77 101.96 194.77 105.89 200.75 116.59 217.14 128.61 217.14 113.01 194.77 128.61 173.51"/><polygon class="cls-59" points="113.01 194.77 109.08 189.09 98.38 173.51 86.36 173.51 101.96 194.77 86.36 217.14 98.38 217.14 109.08 200.75 113.01 194.77 113.01 194.77 113.01 194.77"/></g></g></g></svg>